<svg width="6743" height="4019" viewBox="0 0 6743 4019" fill="none" xmlns="http://www.w3.org/2000/svg">
<g filter="url(#filter0_g_69_28)">
<line x1="1110.5" y1="195" x2="1110.5" y2="3541" stroke="white"/>
</g>
<g filter="url(#filter1_g_69_28)">
<mask id="path-2-inside-1_69_28" fill="white">
<path d="M6168 3388H1402V983H1429.23C1604.68 2303.36 2606.4 3141 3800.5 3141C4994.6 3141 5970.81 2303.36 6141.52 983H6168V3388Z"/>
</mask>
<path d="M6168 3388H1402V983H1429.23C1604.68 2303.36 2606.4 3141 3800.5 3141C4994.6 3141 5970.81 2303.36 6141.52 983H6168V3388Z" fill="#2C276E"/>
<path d="M6168 3388V3415H6195V3388H6168ZM1402 3388H1375V3415H1402V3388ZM1402 983V956H1375V983H1402ZM1429.23 983L1455.99 979.444L1452.88 956H1429.23V983ZM6141.52 983V956H6117.79L6114.75 979.538L6141.52 983ZM6168 983H6195V956H6168V983ZM6168 3388V3361H1402V3388V3415H6168V3388ZM1402 3388H1429V983H1402H1375V3388H1402ZM1402 983V1010H1429.23V983V956H1402V983ZM1429.23 983L1402.46 986.556C1579.65 2320.01 2592.53 3168 3800.5 3168V3141V3114C2620.26 3114 1629.7 2286.71 1455.99 979.444L1429.23 983ZM3800.5 3141V3168C5008.81 3168 5995.93 2319.64 6168.3 986.462L6141.52 983L6114.75 979.538C5945.69 2287.08 4980.39 3114 3800.5 3114V3141ZM6141.52 983V1010H6168V983V956H6141.52V983ZM6168 983H6141V3388H6168H6195V983H6168Z" fill="white" mask="url(#path-2-inside-1_69_28)"/>
</g>
<g filter="url(#filter2_g_69_28)">
<line x1="1400" y1="15.8167" x2="1426.69" y2="3655.82" stroke="white" stroke-width="50"/>
</g>
<g filter="url(#filter3_g_69_28)">
<line x1="6280" y1="3387" x2="1110" y2="3387" stroke="white" stroke-width="50"/>
</g>
<path d="M767.07 3947V3728.82H813.2V3908.97H906.737V3947H767.07ZM1010.37 3950.2C993.819 3950.2 979.508 3946.68 967.434 3939.65C955.432 3932.55 946.163 3922.67 939.629 3910.03C933.095 3897.32 929.828 3882.58 929.828 3865.82C929.828 3848.92 933.095 3834.14 939.629 3821.5C946.163 3808.79 955.432 3798.92 967.434 3791.89C979.508 3784.78 993.819 3781.23 1010.37 3781.23C1026.92 3781.23 1041.19 3784.78 1053.19 3791.89C1065.27 3798.92 1074.57 3808.79 1081.11 3821.5C1087.64 3834.14 1090.91 3848.92 1090.91 3865.82C1090.91 3882.58 1087.64 3897.32 1081.11 3910.03C1074.57 3922.67 1065.27 3932.55 1053.19 3939.65C1041.19 3946.68 1026.92 3950.2 1010.37 3950.2ZM1010.58 3915.04C1018.11 3915.04 1024.39 3912.91 1029.44 3908.65C1034.48 3904.32 1038.28 3898.42 1040.84 3890.96C1043.46 3883.51 1044.78 3875.02 1044.78 3865.5C1044.78 3855.98 1043.46 3847.5 1040.84 3840.04C1038.28 3832.58 1034.48 3826.69 1029.44 3822.36C1024.39 3818.02 1018.11 3815.86 1010.58 3815.86C1002.98 3815.86 996.589 3818.02 991.405 3822.36C986.291 3826.69 982.42 3832.58 979.792 3840.04C977.236 3847.5 975.957 3855.98 975.957 3865.5C975.957 3875.02 977.236 3883.51 979.792 3890.96C982.42 3898.42 986.291 3904.32 991.405 3908.65C996.589 3912.91 1002.98 3915.04 1010.58 3915.04ZM1148.6 3947L1104.06 3783.36H1149.98L1175.34 3893.31H1176.83L1203.25 3783.36H1248.31L1275.16 3892.67H1276.54L1301.47 3783.36H1347.28L1302.86 3947H1254.81L1226.69 3844.09H1224.66L1196.54 3947H1148.6ZM1441.78 3947V3728.82H1588.79V3766.85H1487.91V3818.84H1581.23V3856.87H1487.91V3908.97H1589.22V3947H1441.78ZM1625.47 3947V3728.82H1671.6V3908.97H1765.14V3947H1625.47ZM1987.68 3837.91C1987.68 3861.7 1983.17 3881.94 1974.16 3898.63C1965.21 3915.32 1952.99 3928.07 1937.51 3936.88C1922.1 3945.62 1904.77 3949.98 1885.52 3949.98C1866.13 3949.98 1848.73 3945.58 1833.32 3936.77C1817.91 3927.97 1805.72 3915.22 1796.78 3898.53C1787.83 3881.84 1783.35 3861.63 1783.35 3837.91C1783.35 3814.12 1787.83 3793.88 1796.78 3777.18C1805.72 3760.49 1817.91 3747.78 1833.32 3739.05C1848.73 3730.24 1866.13 3725.84 1885.52 3725.84C1904.77 3725.84 1922.1 3730.24 1937.51 3739.05C1952.99 3747.78 1965.21 3760.49 1974.16 3777.18C1983.17 3793.88 1987.68 3814.12 1987.68 3837.91ZM1940.92 3837.91C1940.92 3822.5 1938.61 3809.5 1933.99 3798.92C1929.45 3788.34 1923.02 3780.31 1914.71 3774.84C1906.4 3769.37 1896.67 3766.64 1885.52 3766.64C1874.37 3766.64 1864.64 3769.37 1856.33 3774.84C1848.02 3780.31 1841.56 3788.34 1836.94 3798.92C1832.39 3809.5 1830.12 3822.5 1830.12 3837.91C1830.12 3853.32 1832.39 3866.32 1836.94 3876.9C1841.56 3887.48 1848.02 3895.51 1856.33 3900.98C1864.64 3906.45 1874.37 3909.18 1885.52 3909.18C1896.67 3909.18 1906.4 3906.45 1914.71 3900.98C1923.02 3895.51 1929.45 3887.48 1933.99 3876.9C1938.61 3866.32 1940.92 3853.32 1940.92 3837.91Z" fill="white"/>
<path d="M153.994 1758.82H200.124V1900.51C200.124 1916.42 196.324 1930.34 188.724 1942.27C181.196 1954.2 170.649 1963.51 157.084 1970.18C143.518 1976.79 127.716 1980.09 109.676 1980.09C91.5653 1980.09 75.7273 1976.79 62.1619 1970.18C48.5966 1963.51 38.0497 1954.2 30.5213 1942.27C22.9929 1930.34 19.2287 1916.42 19.2287 1900.51V1758.82H65.358V1896.57C65.358 1904.88 67.169 1912.26 70.7912 1918.73C74.4844 1925.19 79.669 1930.27 86.3452 1933.96C93.0213 1937.65 100.798 1939.5 109.676 1939.5C118.625 1939.5 126.402 1937.65 133.007 1933.96C139.683 1930.27 144.832 1925.19 148.455 1918.73C152.148 1912.26 153.994 1904.88 153.994 1896.57V1758.82ZM373.375 1860.03L331.826 1862.58C331.116 1859.03 329.589 1855.84 327.245 1852.99C324.902 1850.08 321.812 1847.77 317.977 1846.07C314.213 1844.29 309.703 1843.41 304.447 1843.41C297.416 1843.41 291.485 1844.9 286.656 1847.88C281.826 1850.79 279.412 1854.7 279.412 1859.6C279.412 1863.51 280.974 1866.81 284.099 1869.51C287.224 1872.21 292.586 1874.37 300.186 1876.01L329.802 1881.97C345.711 1885.24 357.572 1890.49 365.385 1897.74C373.197 1904.98 377.103 1914.5 377.103 1926.29C377.103 1937.01 373.943 1946.42 367.622 1954.52C361.372 1962.62 352.778 1968.94 341.841 1973.48C330.974 1977.96 318.439 1980.2 304.234 1980.2C282.572 1980.2 265.314 1975.69 252.458 1966.67C239.674 1957.58 232.181 1945.22 229.98 1929.59L274.618 1927.25C275.967 1933.85 279.234 1938.9 284.419 1942.38C289.603 1945.79 296.244 1947.49 304.341 1947.49C312.295 1947.49 318.687 1945.96 323.517 1942.91C328.417 1939.78 330.903 1935.77 330.974 1930.87C330.903 1926.75 329.163 1923.38 325.754 1920.75C322.345 1918.05 317.089 1915.99 309.987 1914.57L281.649 1908.92C265.669 1905.73 253.772 1900.19 245.96 1892.31C238.218 1884.42 234.348 1874.37 234.348 1862.16C234.348 1851.64 237.189 1842.59 242.87 1834.99C248.623 1827.39 256.684 1821.53 267.054 1817.41C277.494 1813.29 289.71 1811.23 303.701 1811.23C324.369 1811.23 340.633 1815.6 352.494 1824.34C364.426 1833.07 371.386 1844.97 373.375 1860.03ZM452.343 1980.09C441.903 1980.09 432.599 1978.28 424.431 1974.66C416.263 1970.96 409.8 1965.53 405.042 1958.36C400.354 1951.11 398.011 1942.09 398.011 1931.3C398.011 1922.21 399.68 1914.57 403.018 1908.39C406.356 1902.21 410.901 1897.24 416.654 1893.48C422.407 1889.71 428.941 1886.87 436.256 1884.95C443.643 1883.04 451.384 1881.69 459.481 1880.91C468.998 1879.91 476.668 1878.99 482.492 1878.14C488.316 1877.21 492.542 1875.86 495.17 1874.09C497.798 1872.31 499.112 1869.68 499.112 1866.2V1865.57C499.112 1858.82 496.981 1853.6 492.719 1849.9C488.529 1846.21 482.563 1844.37 474.822 1844.37C466.654 1844.37 460.156 1846.18 455.326 1849.8C450.496 1853.35 447.3 1857.82 445.738 1863.22L403.763 1859.81C405.894 1849.87 410.085 1841.28 416.335 1834.03C422.585 1826.72 430.646 1821.11 440.518 1817.2C450.461 1813.22 461.967 1811.23 475.035 1811.23C484.126 1811.23 492.826 1812.3 501.136 1814.43C509.516 1816.56 516.938 1819.86 523.401 1824.34C529.935 1828.81 535.085 1834.56 538.849 1841.6C542.613 1848.56 544.495 1856.9 544.495 1866.63V1977H501.455V1954.31H500.177C497.549 1959.42 494.033 1963.93 489.63 1967.84C485.227 1971.67 479.935 1974.69 473.756 1976.89C467.577 1979.02 460.44 1980.09 452.343 1980.09ZM465.34 1948.77C472.016 1948.77 477.911 1947.45 483.025 1944.83C488.138 1942.13 492.151 1938.51 495.063 1933.96C497.975 1929.41 499.431 1924.27 499.431 1918.51V1901.15C498.011 1902.07 496.058 1902.92 493.572 1903.7C491.157 1904.41 488.423 1905.09 485.369 1905.73C482.315 1906.3 479.261 1906.83 476.207 1907.33C473.153 1907.75 470.383 1908.14 467.897 1908.5C462.57 1909.28 457.918 1910.52 453.941 1912.23C449.964 1913.93 446.874 1916.24 444.673 1919.15C442.471 1921.99 441.37 1925.54 441.37 1929.81C441.37 1935.98 443.607 1940.71 448.082 1943.97C452.627 1947.17 458.38 1948.77 465.34 1948.77ZM653.426 2041.77C638.724 2041.77 626.118 2039.75 615.607 2035.7C605.166 2031.72 596.857 2026.29 590.678 2019.4C584.499 2012.51 580.486 2004.77 578.639 1996.18L620.614 1990.53C621.892 1993.8 623.916 1996.85 626.686 1999.69C629.456 2002.53 633.114 2004.81 637.659 2006.51C642.276 2008.29 647.886 2009.17 654.491 2009.17C664.364 2009.17 672.496 2006.76 678.888 2001.93C685.351 1997.17 688.582 1989.18 688.582 1977.96V1948.02H686.665C684.676 1952.57 681.693 1956.87 677.716 1960.91C673.739 1964.96 668.625 1968.26 662.375 1970.82C656.125 1973.38 648.668 1974.66 640.003 1974.66C627.716 1974.66 616.53 1971.82 606.445 1966.13C596.43 1960.38 588.44 1951.61 582.474 1939.82C576.58 1927.96 573.632 1912.97 573.632 1894.86C573.632 1876.33 576.651 1860.84 582.688 1848.41C588.724 1835.98 596.75 1826.68 606.764 1820.5C616.849 1814.32 627.893 1811.23 639.896 1811.23C649.058 1811.23 656.729 1812.8 662.908 1815.92C669.087 1818.97 674.058 1822.81 677.822 1827.43C681.658 1831.97 684.605 1836.45 686.665 1840.85H688.369V1813.36H733.433V1978.6C733.433 1992.52 730.024 2004.17 723.206 2013.54C716.388 2022.92 706.942 2029.95 694.868 2034.63C682.865 2039.39 669.051 2041.77 653.426 2041.77ZM654.385 1940.57C661.7 1940.57 667.879 1938.75 672.922 1935.13C678.036 1931.44 681.942 1926.18 684.641 1919.37C687.411 1912.48 688.795 1904.24 688.795 1894.65C688.795 1885.06 687.446 1876.75 684.747 1869.72C682.048 1862.62 678.142 1857.11 673.028 1853.21C667.915 1849.3 661.7 1847.35 654.385 1847.35C646.928 1847.35 640.642 1849.37 635.528 1853.42C630.415 1857.4 626.544 1862.94 623.916 1870.04C621.288 1877.14 619.974 1885.35 619.974 1894.65C619.974 1904.1 621.288 1912.26 623.916 1919.15C626.615 1925.97 630.486 1931.26 635.528 1935.03C640.642 1938.72 646.928 1940.57 654.385 1940.57ZM844.122 1980.2C827.29 1980.2 812.801 1976.79 800.656 1969.97C788.582 1963.08 779.278 1953.35 772.744 1940.78C766.21 1928.14 762.943 1913.19 762.943 1895.93C762.943 1879.1 766.21 1864.32 772.744 1851.61C779.278 1838.9 788.476 1828.99 800.337 1821.89C812.268 1814.78 826.26 1811.23 842.311 1811.23C853.107 1811.23 863.156 1812.97 872.46 1816.45C881.835 1819.86 890.003 1825.01 896.963 1831.9C903.994 1838.79 909.463 1847.45 913.369 1857.89C917.276 1868.26 919.229 1880.41 919.229 1894.33V1906.79H781.054V1878.67H876.509C876.509 1872.13 875.088 1866.35 872.247 1861.3C869.406 1856.26 865.464 1852.32 860.422 1849.48C855.45 1846.57 849.662 1845.11 843.057 1845.11C836.168 1845.11 830.06 1846.71 824.733 1849.9C819.477 1853.03 815.358 1857.26 812.375 1862.58C809.392 1867.84 807.865 1873.7 807.794 1880.16V1906.9C807.794 1915 809.286 1921.99 812.268 1927.89C815.322 1933.78 819.619 1938.33 825.159 1941.52C830.699 1944.72 837.268 1946.32 844.868 1946.32C849.911 1946.32 854.527 1945.61 858.717 1944.19C862.908 1942.77 866.494 1940.64 869.477 1937.8C872.46 1934.95 874.733 1931.47 876.295 1927.36L918.27 1930.12C916.139 1940.21 911.771 1949.02 905.166 1956.55C898.632 1964 890.18 1969.83 879.811 1974.02C869.513 1978.14 857.616 1980.2 844.122 1980.2Z" fill="white"/>
<path d="M5429.4 3947V3728.82H5475.53V3818.84H5569.17V3728.82H5615.19V3947H5569.17V3856.87H5475.53V3947H5429.4ZM5652.37 3947V3783.36H5697.76V3947H5652.37ZM5675.17 3762.27C5668.43 3762.27 5662.64 3760.03 5657.81 3755.56C5653.05 3751.01 5650.67 3745.58 5650.67 3739.26C5650.67 3733.01 5653.05 3727.65 5657.81 3723.17C5662.64 3718.63 5668.43 3716.35 5675.17 3716.35C5681.92 3716.35 5687.67 3718.63 5692.43 3723.17C5697.26 3727.65 5699.68 3733.01 5699.68 3739.26C5699.68 3745.58 5697.26 3751.01 5692.43 3755.56C5687.67 3760.03 5681.92 3762.27 5675.17 3762.27ZM5807.83 4011.77C5793.13 4011.77 5780.53 4009.75 5770.01 4005.7C5759.57 4001.72 5751.26 3996.29 5745.09 3989.4C5738.91 3982.51 5734.89 3974.77 5733.05 3966.18L5775.02 3960.53C5776.3 3963.8 5778.32 3966.85 5781.09 3969.69C5783.86 3972.53 5787.52 3974.81 5792.07 3976.51C5796.68 3978.29 5802.29 3979.17 5808.9 3979.17C5818.77 3979.17 5826.9 3976.76 5833.3 3971.93C5839.76 3967.17 5842.99 3959.18 5842.99 3947.96V3918.02H5841.07C5839.08 3922.57 5836.1 3926.87 5832.12 3930.91C5828.15 3934.96 5823.03 3938.26 5816.78 3940.82C5810.53 3943.38 5803.08 3944.66 5794.41 3944.66C5782.12 3944.66 5770.94 3941.82 5760.85 3936.13C5750.84 3930.38 5742.85 3921.61 5736.88 3909.82C5730.99 3897.96 5728.04 3882.97 5728.04 3864.86C5728.04 3846.33 5731.06 3830.84 5737.1 3818.41C5743.13 3805.98 5751.16 3796.68 5761.17 3790.5C5771.26 3784.32 5782.3 3781.23 5794.3 3781.23C5803.47 3781.23 5811.14 3782.8 5817.32 3785.92C5823.49 3788.97 5828.47 3792.81 5832.23 3797.43C5836.07 3801.97 5839.01 3806.45 5841.07 3810.85H5842.78V3783.36H5887.84V3948.6C5887.84 3962.52 5884.43 3974.17 5877.61 3983.54C5870.8 3992.92 5861.35 3999.95 5849.28 4004.63C5837.27 4009.39 5823.46 4011.77 5807.83 4011.77ZM5808.79 3910.57C5816.11 3910.57 5822.29 3908.75 5827.33 3905.13C5832.44 3901.44 5836.35 3896.18 5839.05 3889.37C5841.82 3882.48 5843.2 3874.24 5843.2 3864.65C5843.2 3855.06 5841.85 3846.75 5839.16 3839.72C5836.46 3832.62 5832.55 3827.11 5827.44 3823.21C5822.32 3819.3 5816.11 3817.35 5808.79 3817.35C5801.34 3817.35 5795.05 3819.37 5789.94 3823.42C5784.82 3827.4 5780.95 3832.94 5778.32 3840.04C5775.7 3847.14 5774.38 3855.35 5774.38 3864.65C5774.38 3874.1 5775.7 3882.26 5778.32 3889.15C5781.02 3895.97 5784.89 3901.26 5789.94 3905.03C5795.05 3908.72 5801.34 3910.57 5808.79 3910.57ZM5969.34 3852.4V3947H5923.96V3728.82H5968.06V3812.23H5969.98C5973.67 3802.58 5979.64 3795.01 5987.88 3789.54C5996.12 3784 6006.45 3781.23 6018.88 3781.23C6030.24 3781.23 6040.15 3783.72 6048.6 3788.69C6057.12 3793.59 6063.73 3800.66 6068.42 3809.89C6073.18 3819.05 6075.52 3830.03 6075.45 3842.81V3947H6030.06V3850.91C6030.14 3840.82 6027.58 3832.97 6022.39 3827.36C6017.28 3821.75 6010.11 3818.95 6000.87 3818.95C5994.7 3818.95 5989.23 3820.26 5984.47 3822.89C5979.78 3825.52 5976.09 3829.35 5973.39 3834.39C5970.76 3839.37 5969.41 3845.37 5969.34 3852.4ZM6181.45 3947V3728.82H6328.47V3766.85H6227.58V3818.84H6320.9V3856.87H6227.58V3908.97H6328.89V3947H6181.45ZM6365.14 3947V3728.82H6411.27V3908.97H6504.81V3947H6365.14ZM6727.36 3837.91C6727.36 3861.7 6722.85 3881.94 6713.83 3898.63C6704.88 3915.32 6692.66 3928.07 6677.18 3936.88C6661.77 3945.62 6644.44 3949.98 6625.19 3949.98C6605.8 3949.98 6588.4 3945.58 6572.99 3936.77C6557.58 3927.97 6545.4 3915.22 6536.45 3898.53C6527.5 3881.84 6523.02 3861.63 6523.02 3837.91C6523.02 3814.12 6527.5 3793.88 6536.45 3777.18C6545.4 3760.49 6557.58 3747.78 6572.99 3739.05C6588.4 3730.24 6605.8 3725.84 6625.19 3725.84C6644.44 3725.84 6661.77 3730.24 6677.18 3739.05C6692.66 3747.78 6704.88 3760.49 6713.83 3777.18C6722.85 3793.88 6727.36 3814.12 6727.36 3837.91ZM6680.59 3837.91C6680.59 3822.5 6678.28 3809.5 6673.66 3798.92C6669.12 3788.34 6662.69 3780.31 6654.38 3774.84C6646.07 3769.37 6636.34 3766.64 6625.19 3766.64C6614.04 3766.64 6604.31 3769.37 6596 3774.84C6587.69 3780.31 6581.23 3788.34 6576.61 3798.92C6572.07 3809.5 6569.79 3822.5 6569.79 3837.91C6569.79 3853.32 6572.07 3866.32 6576.61 3876.9C6581.23 3887.48 6587.69 3895.51 6596 3900.98C6604.31 3906.45 6614.04 3909.18 6625.19 3909.18C6636.34 3909.18 6646.07 3906.45 6654.38 3900.98C6662.69 3895.51 6669.12 3887.48 6673.66 3876.9C6678.28 3866.32 6680.59 3853.32 6680.59 3837.91Z" fill="white"/>
<path d="M3260.22 3728.82H3317.11L3377.2 3875.41H3379.75L3439.84 3728.82H3496.73V3947H3451.98V3804.99H3450.17L3393.71 3945.93H3363.24L3306.78 3804.46H3304.97V3947H3260.22V3728.82ZM3533.88 3947V3783.36H3579.26V3947H3533.88ZM3556.68 3762.27C3549.93 3762.27 3544.14 3760.03 3539.31 3755.56C3534.56 3751.01 3532.18 3745.58 3532.18 3739.26C3532.18 3733.01 3534.56 3727.65 3539.31 3723.17C3544.14 3718.63 3549.93 3716.35 3556.68 3716.35C3563.43 3716.35 3569.18 3718.63 3573.94 3723.17C3578.77 3727.65 3581.18 3733.01 3581.18 3739.26C3581.18 3745.58 3578.77 3751.01 3573.94 3755.56C3569.18 3760.03 3563.43 3762.27 3556.68 3762.27ZM3675.92 3949.66C3663.49 3949.66 3652.23 3946.47 3642.15 3940.08C3632.13 3933.61 3624.18 3924.13 3618.28 3911.63C3612.46 3899.06 3609.55 3883.65 3609.55 3865.39C3609.55 3846.64 3612.56 3831.06 3618.6 3818.63C3624.64 3806.13 3632.66 3796.79 3642.68 3790.61C3652.76 3784.36 3663.81 3781.23 3675.81 3781.23C3684.97 3781.23 3692.61 3782.8 3698.72 3785.92C3704.89 3788.97 3709.87 3792.81 3713.63 3797.43C3717.47 3801.97 3720.38 3806.45 3722.37 3810.85H3723.75V3728.82H3769.03V3947H3724.28V3920.79H3722.37C3720.24 3925.34 3717.22 3929.85 3713.31 3934.32C3709.48 3938.73 3704.47 3942.38 3698.29 3945.3C3692.18 3948.21 3684.72 3949.66 3675.92 3949.66ZM3690.3 3913.55C3697.61 3913.55 3703.79 3911.56 3708.84 3907.58C3713.95 3903.53 3717.86 3897.89 3720.55 3890.64C3723.32 3883.4 3724.71 3874.91 3724.71 3865.18C3724.71 3855.45 3723.36 3847 3720.66 3839.83C3717.96 3832.65 3714.06 3827.11 3708.94 3823.21C3703.83 3819.3 3697.61 3817.35 3690.3 3817.35C3682.84 3817.35 3676.56 3819.37 3671.44 3823.42C3666.33 3827.47 3662.46 3833.08 3659.83 3840.25C3657.2 3847.43 3655.89 3855.74 3655.89 3865.18C3655.89 3874.7 3657.2 3883.12 3659.83 3890.43C3662.53 3897.67 3666.4 3903.36 3671.44 3907.48C3676.56 3911.52 3682.84 3913.55 3690.3 3913.55ZM3876.63 3947V3728.82H4023.64V3766.85H3922.76V3818.84H4016.08V3856.87H3922.76V3908.97H4024.07V3947H3876.63ZM4060.32 3947V3728.82H4106.45V3908.97H4199.98V3947H4060.32ZM4422.53 3837.91C4422.53 3861.7 4418.02 3881.94 4409 3898.63C4400.06 3915.32 4387.84 3928.07 4372.36 3936.88C4356.94 3945.62 4339.62 3949.98 4320.37 3949.98C4300.98 3949.98 4283.58 3945.58 4268.17 3936.77C4252.75 3927.97 4240.57 3915.22 4231.63 3898.53C4222.68 3881.84 4218.2 3861.63 4218.2 3837.91C4218.2 3814.12 4222.68 3793.88 4231.63 3777.18C4240.57 3760.49 4252.75 3747.78 4268.17 3739.05C4283.58 3730.24 4300.98 3725.84 4320.37 3725.84C4339.62 3725.84 4356.94 3730.24 4372.36 3739.05C4387.84 3747.78 4400.06 3760.49 4409 3777.18C4418.02 3793.88 4422.53 3814.12 4422.53 3837.91ZM4375.77 3837.91C4375.77 3822.5 4373.46 3809.5 4368.84 3798.92C4364.3 3788.34 4357.87 3780.31 4349.56 3774.84C4341.25 3769.37 4331.52 3766.64 4320.37 3766.64C4309.22 3766.64 4299.49 3769.37 4291.18 3774.84C4282.87 3780.31 4276.41 3788.34 4271.79 3798.92C4267.24 3809.5 4264.97 3822.5 4264.97 3837.91C4264.97 3853.32 4267.24 3866.32 4271.79 3876.9C4276.41 3887.48 4282.87 3895.51 4291.18 3900.98C4299.49 3906.45 4309.22 3909.18 4320.37 3909.18C4331.52 3909.18 4341.25 3906.45 4349.56 3900.98C4357.87 3895.51 4364.3 3887.48 4368.84 3876.9C4373.46 3866.32 4375.77 3853.32 4375.77 3837.91Z" fill="white"/>
<line x1="3803.5" y1="2806" x2="3803.5" y2="3585" stroke="white" stroke-width="37"/>
<defs>
<filter id="filter0_g_69_28" x="1094.9" y="179.9" width="31.2" height="3376.2" filterUnits="userSpaceOnUse" color-interpolation-filters="sRGB">
<feFlood flood-opacity="0" result="BackgroundImageFix"/>
<feBlend mode="normal" in="SourceGraphic" in2="BackgroundImageFix" result="shape"/>
<feTurbulence type="fractalNoise" baseFrequency="0.032258063554763794 0.032258063554763794" numOctaves="3" seed="5521" />
<feDisplacementMap in="shape" scale="30.200000762939453" xChannelSelector="R" yChannelSelector="G" result="displacedImage" width="100%" height="100%" />
<feMerge result="effect1_texture_69_28">
<feMergeNode in="displacedImage"/>
</feMerge>
</filter>
<filter id="filter1_g_69_28" x="1386.9" y="967.9" width="4796.2" height="2435.2" filterUnits="userSpaceOnUse" color-interpolation-filters="sRGB">
<feFlood flood-opacity="0" result="BackgroundImageFix"/>
<feBlend mode="normal" in="SourceGraphic" in2="BackgroundImageFix" result="shape"/>
<feTurbulence type="fractalNoise" baseFrequency="0.032258063554763794 0.032258063554763794" numOctaves="3" seed="5521" />
<feDisplacementMap in="shape" scale="30.200000762939453" xChannelSelector="R" yChannelSelector="G" result="displacedImage" width="100%" height="100%" />
<feMerge result="effect1_texture_69_28">
<feMergeNode in="displacedImage"/>
</feMerge>
</filter>
<filter id="filter2_g_69_28" x="1359.9" y="0.5333" width="106.891" height="3670.57" filterUnits="userSpaceOnUse" color-interpolation-filters="sRGB">
<feFlood flood-opacity="0" result="BackgroundImageFix"/>
<feBlend mode="normal" in="SourceGraphic" in2="BackgroundImageFix" result="shape"/>
<feTurbulence type="fractalNoise" baseFrequency="0.032258063554763794 0.032258063554763794" numOctaves="3" seed="5521" />
<feDisplacementMap in="shape" scale="30.200000762939453" xChannelSelector="R" yChannelSelector="G" result="displacedImage" width="100%" height="100%" />
<feMerge result="effect1_texture_69_28">
<feMergeNode in="displacedImage"/>
</feMerge>
</filter>
<filter id="filter3_g_69_28" x="1094.9" y="3346.9" width="5200.2" height="80.2" filterUnits="userSpaceOnUse" color-interpolation-filters="sRGB">
<feFlood flood-opacity="0" result="BackgroundImageFix"/>
<feBlend mode="normal" in="SourceGraphic" in2="BackgroundImageFix" result="shape"/>
<feTurbulence type="fractalNoise" baseFrequency="0.032258063554763794 0.032258063554763794" numOctaves="3" seed="5521" />
<feDisplacementMap in="shape" scale="30.200000762939453" xChannelSelector="R" yChannelSelector="G" result="displacedImage" width="100%" height="100%" />
<feMerge result="effect1_texture_69_28">
<feMergeNode in="displacedImage"/>
</feMerge>
</filter>
</defs>
</svg>
